<?xml version="1.0" encoding="UTF-8" standalone="no"?>
<svg
   width="64"
   height="64"
   version="1.1"
   id="svg60"
   sodipodi:docname="snapchat.svg"
   inkscape:version="1.1.2 (0a00cf5339, 2022-02-04)"
   xmlns:inkscape="http://www.inkscape.org/namespaces/inkscape"
   xmlns:sodipodi="http://sodipodi.sourceforge.net/DTD/sodipodi-0.dtd"
   xmlns="http://www.w3.org/2000/svg"
   xmlns:svg="http://www.w3.org/2000/svg">
  <sodipodi:namedview
     id="namedview62"
     pagecolor="#505050"
     bordercolor="#eeeeee"
     borderopacity="1"
     inkscape:pageshadow="0"
     inkscape:pageopacity="0"
     inkscape:pagecheckerboard="0"
     showgrid="false"
     inkscape:zoom="9.291825"
     inkscape:cx="35.030793"
     inkscape:cy="30.941177"
     inkscape:window-width="1920"
     inkscape:window-height="1022"
     inkscape:window-x="0"
     inkscape:window-y="24"
     inkscape:window-maximized="1"
     inkscape:current-layer="svg60" />
  <defs
     id="defs34">
    <linearGradient
       id="c"
       x1="25.093"
       x2="25.034"
       y1="59.233"
       y2="2.826"
       gradientTransform="matrix(1 0 0 .999 0 .005)"
       gradientUnits="userSpaceOnUse">
      <stop
         stop-color="#ff5400"
         offset="0"
         id="stop2" />
      <stop
         stop-color="#fb0"
         offset="1"
         id="stop4" />
    </linearGradient>
    <linearGradient
       id="e"
       x1="26.502"
       x2="26.59"
       y1="59.602"
       y2="18.949"
       gradientUnits="userSpaceOnUse">
      <stop
         stop-color="#35e872"
         offset="0"
         id="stop7" />
      <stop
         stop-color="#34e9d8"
         offset="1"
         id="stop9" />
    </linearGradient>
    <linearGradient
       id="d"
       x1="43.067"
       x2="42.579"
       y1="59.41"
       y2="28.346"
       gradientUnits="userSpaceOnUse">
      <stop
         stop-color="#3553e4"
         offset="0"
         id="stop12" />
      <stop
         stop-color="#56cef3"
         offset="1"
         id="stop14" />
    </linearGradient>
    <linearGradient
       id="a"
       x1="7.937"
       x2="7.937"
       y1="15.081"
       y2="1.852"
       gradientTransform="scale(3.7796)"
       gradientUnits="userSpaceOnUse">
      <stop
         stop-color="#f1efeb"
         offset="0"
         id="stop17" />
      <stop
         stop-color="#fdfcfc"
         offset="1"
         id="stop19" />
    </linearGradient>
    <filter
       id="f"
       x="-0.24925054"
       y="-0.18623963"
       width="1.4985011"
       height="1.3724793"
       color-interpolation-filters="sRGB">
      <feGaussianBlur
         stdDeviation=".776"
         id="feGaussianBlur22" />
    </filter>
    <filter
       id="g"
       x="-0.23962945"
       y="-0.18625863"
       width="1.4792589"
       height="1.3725173"
       color-interpolation-filters="sRGB">
      <feGaussianBlur
         stdDeviation=".776"
         id="feGaussianBlur25" />
    </filter>
    <filter
       id="h"
       x="-0.22330936"
       y="-0.18625863"
       width="1.4466187"
       height="1.3725173"
       color-interpolation-filters="sRGB">
      <feGaussianBlur
         stdDeviation=".776"
         id="feGaussianBlur28" />
    </filter>
    <filter
       id="b"
       x="-0.108"
       y="-0.108"
       width="1.216"
       height="1.216"
       color-interpolation-filters="sRGB">
      <feGaussianBlur
         stdDeviation="2.16"
         id="feGaussianBlur31" />
    </filter>
  </defs>
  <path
     d="m 51.276975,4.0409909 c 4.900984,0 8.875565,3.9737282 8.875565,8.8764031 V 50.86828 c 0,4.900981 -3.974581,8.875559 -8.875565,8.875559 H 13.3261 c -4.90176,0 -8.876408,-3.974514 -8.876408,-8.875559 V 12.917394 c 0,-4.9026749 3.97458,-8.8764031 8.876408,-8.8764031 z"
     fill="#fffc00"
     id="path2"
     style="stroke-width:0.706487" />
  <path
     d="m 50.681709,41.441177 c -0.164184,-0.543285 -0.949788,-0.926337 -0.949788,-0.926337 -0.07421,-0.03906 -0.140732,-0.07425 -0.195411,-0.101667 -1.309377,-0.633144 -2.470273,-1.395298 -3.447413,-2.259178 -0.785595,-0.695739 -1.457885,-1.461772 -1.997269,-2.274789 -0.660573,-0.992811 -0.969374,-1.821442 -1.102263,-2.270904 -0.07421,-0.293189 -0.06246,-0.410461 0,-0.562847 0.05087,-0.129005 0.203255,-0.250099 0.27363,-0.308736 0.441683,-0.312754 1.152974,-0.773945 1.590773,-1.055336 0.379169,-0.246281 0.703588,-0.457301 0.895117,-0.590262 0.613642,-0.429894 1.035687,-0.867697 1.281973,-1.340616 0.32053,-0.609687 0.359598,-1.282043 0.109498,-1.942599 -0.336212,-0.891154 -1.16872,-1.422709 -2.227936,-1.422709 -0.234561,0 -0.476887,0.02736 -0.719197,0.07814 -0.605808,0.132888 -1.180379,0.347868 -1.66115,0.53551 a 0.049948,0.049948 0 0 1 -0.07036,-0.05087 c 0.05087,-1.19211 0.1095,-2.794615 -0.02346,-4.315029 -0.117278,-1.375873 -0.402553,-2.536757 -0.863805,-3.549068 -0.465077,-1.016201 -1.070961,-1.766695 -1.543879,-2.309977 -0.449537,-0.515941 -1.242972,-1.278086 -2.438968,-1.962105 -1.68071,-0.961512 -3.595973,-1.450114 -5.690977,-1.450114 -2.091106,0 -4.002398,0.488602 -5.687007,1.450114 -1.266425,0.723083 -2.075485,1.539985 -2.442852,1.962105 -0.472991,0.543282 -1.078795,1.293776 -1.543939,2.309975 -0.465148,1.012383 -0.746537,2.169309 -0.863811,3.549062 -0.132819,1.528252 -0.07814,3.001826 -0.02344,4.315097 0,0.03907 -0.03518,0.06643 -0.07426,0.05079 -0.480759,-0.187639 -1.055339,-0.402618 -1.661144,-0.535509 -0.238435,-0.0508 -0.480754,-0.07814 -0.719193,-0.07814 -1.055337,0 -1.887852,0.531555 -2.227951,1.422711 -0.250094,0.660554 -0.211026,1.33284 0.109512,1.942597 0.25009,0.472921 0.668328,0.910653 1.281974,1.340617 0.18764,0.132959 0.515939,0.344055 0.895107,0.590262 0.426008,0.277503 1.11786,0.726966 1.563438,1.035698 0.05468,0.03912 0.242323,0.179869 0.30096,0.32837 0.06254,0.156342 0.07425,0.273619 -0.008,0.586306 -0.136841,0.453419 -0.445646,1.274204 -1.094476,2.247449 -0.5394,0.8169 -1.211614,1.579051 -1.997287,2.274858 -0.977129,0.863741 -2.138018,1.625963 -3.4474,2.259108 -0.06254,0.03129 -0.136774,0.0664 -0.214985,0.113391 0,0 -0.781718,0.398664 -0.930219,0.914609 -0.218867,0.762146 0.363484,1.477455 0.953746,1.860509 0.96929,0.625373 2.149673,0.961517 2.833684,1.145204 0.191457,0.05087 0.363484,0.09769 0.519827,0.144611 0.0977,0.03129 0.343983,0.125048 0.449533,0.261894 0.132815,0.171955 0.148499,0.38305 0.195411,0.62149 0.07426,0.402548 0.242324,0.898922 0.738694,1.242907 0.547238,0.375207 1.239094,0.402549 2.118517,0.437731 0.918492,0.03516 2.059807,0.07822 3.369198,0.512057 0.605877,0.199371 1.156928,0.539391 1.790215,0.930219 1.328878,0.816903 2.982185,1.833171 5.804204,1.833171 2.825918,0 4.491036,-1.020156 5.827752,-1.840944 0.633207,-0.386934 1.176494,-0.723075 1.770643,-0.918559 1.309309,-0.43378 2.450634,-0.476875 3.369201,-0.511988 0.879415,-0.03518 1.571199,-0.05861 2.118444,-0.437802 0.531557,-0.367375 0.684015,-0.914607 0.754366,-1.325 0.03907,-0.203253 0.06245,-0.386937 0.179803,-0.535513 0.101601,-0.128929 0.328302,-0.218867 0.433855,-0.254048 0.160225,-0.05079 0.34003,-0.09771 0.539394,-0.152388 0.684018,-0.183685 1.54386,-0.398735 2.587465,-0.988929 1.258607,-0.715237 1.34459,-1.590773 1.211695,-2.024622 z"
     fill="#ffffff"
     id="path4"
     style="stroke-width:0.706487" />
  <path
     d="m 51.768347,41.01905 c -0.277574,-0.758258 -0.809133,-1.160882 -1.411056,-1.497023 -0.113306,-0.06643 -0.218858,-0.12116 -0.304833,-0.160228 -0.179806,-0.09379 -0.36349,-0.183687 -0.547245,-0.277506 -1.880015,-0.996702 -3.349704,-2.25529 -4.365888,-3.744477 -0.343998,-0.504213 -0.582422,-0.95763 -0.750498,-1.328884 -0.08597,-0.250166 -0.08204,-0.390898 -0.01952,-0.519901 0.04692,-0.0977 0.17195,-0.199298 0.242309,-0.250092 a 64.489463,64.489463 0 0 1 0.883321,-0.574578 c 0.40262,-0.261893 0.723149,-0.469102 0.926414,-0.609763 0.773856,-0.539392 1.313266,-1.113973 1.649404,-1.754961 0.476877,-0.902881 0.53551,-1.934762 0.168066,-2.90412 -0.508095,-1.344571 -1.782301,-2.180968 -3.322338,-2.180968 -0.320475,0 -0.644887,0.0351 -0.965407,0.105471 -0.08597,0.01957 -0.168067,0.03914 -0.250099,0.05864 0.01554,-0.914605 -0.0079,-1.891738 -0.08993,-2.845484 -0.289234,-3.361423 -1.465747,-5.124156 -2.6931,-6.527362 -0.511987,-0.586307 -1.403136,-1.442278 -2.739865,-2.208384 -1.864394,-1.07095 -3.975079,-1.610346 -6.277275,-1.610346 -2.29436,0 -4.404959,0.539396 -6.269423,1.606532 -1.344573,0.766032 -2.235724,1.625891 -2.743825,2.208311 -1.227294,1.403206 -2.40379,3.16594 -2.693095,6.527365 -0.08192,0.953745 -0.101592,1.930801 -0.08986,2.845483 -0.08204,-0.01957 -0.168083,-0.03908 -0.250107,-0.05865 a 4.5354499,4.5354499 0 0 0 -0.965521,-0.105539 c -1.539981,0 -2.814186,0.836473 -3.322283,2.181042 -0.367369,0.969289 -0.308801,2.00117 0.168069,2.904049 0.336143,0.641059 0.879427,1.215637 1.649414,1.755034 0.207141,0.144617 0.523783,0.351756 0.926336,0.609691 0.218865,0.140731 0.535514,0.347868 0.848198,0.555008 0.04692,0.03132 0.214983,0.156344 0.27355,0.273621 0.06646,0.132889 0.06646,0.277502 -0.03121,0.543279 -0.164186,0.363556 -0.402623,0.809133 -0.738766,1.30162 -0.996701,1.457886 -2.423291,2.693022 -4.240847,3.677923 -0.965403,0.512052 -1.965988,0.852155 -2.388107,2.00124 -0.32053,0.867767 -0.109508,1.856625 0.699624,2.689138 0.265777,0.285347 0.601922,0.539397 1.024041,0.773951 0.992815,0.547165 1.837052,0.816898 2.501497,1.000586 0.117272,0.03516 0.387009,0.121162 0.504214,0.226707 0.297074,0.257934 0.254047,0.648829 0.648828,1.219448 0.238441,0.355716 0.512057,0.598038 0.738765,0.75438 0.824674,0.570699 1.754892,0.605805 2.739935,0.644946 0.887268,0.03517 1.895693,0.0742 3.04478,0.45335 0.476876,0.15634 0.973245,0.461255 1.543935,0.81301 1.375791,0.848199 3.26365,2.005128 6.417921,2.005128 3.158171,0 5.053798,-1.16477 6.441383,-2.01297 0.570637,-0.34787 1.063116,-0.652713 1.524378,-0.805168 1.149082,-0.379099 2.157589,-0.418239 3.044774,-0.45335 0.984986,-0.03912 1.911312,-0.07425 2.739936,-0.644946 a 2.879323,2.879323 0 0 0 0.844244,-0.918491 c 0.281472,-0.480755 0.277563,-0.820859 0.543289,-1.051454 0.109501,-0.0938 0.347924,-0.17591 0.476872,-0.21498 0.668399,-0.183682 1.524356,-0.453419 2.536677,-1.012385 0.449536,-0.246207 0.797397,-0.515866 1.07491,-0.824671 l 0.01166,-0.01166 c 0.754367,-0.82078 0.945887,-1.778411 0.633203,-2.626542 z m -2.802534,1.504804 c -1.711926,0.945903 -2.849364,0.844243 -3.732676,1.410978 -0.750492,0.484641 -0.308801,1.528322 -0.852087,1.903537 -0.672289,0.465144 -2.653959,-0.03132 -5.21409,0.812943 -2.110664,0.699695 -3.459138,2.704822 -7.262249,2.704822 -3.810878,0 -5.120263,-1.997354 -7.262165,-2.704822 -2.560136,-0.844242 -4.545693,-0.347799 -5.214092,-0.812943 -0.543282,-0.375213 -0.101591,-1.418825 -0.852013,-1.903537 -0.88338,-0.570624 -2.020808,-0.469032 -3.732746,-1.410978 -1.090523,-0.601921 -0.472992,-0.973244 -0.109511,-1.149159 6.199066,-2.99787 7.184036,-7.633498 7.230949,-7.981369 0.05478,-0.414278 0.113389,-0.742647 -0.343915,-1.168655 -0.44169,-0.410465 -2.407679,-1.62603 -2.951029,-2.005129 -0.902882,-0.629257 -1.297661,-1.25859 -1.004546,-2.032535 0.203258,-0.535441 0.703585,-0.734739 1.231254,-0.734739 0.164184,0 0.332254,0.01953 0.492414,0.05468 0.988932,0.214982 1.950446,0.711423 2.505455,0.844239 0.07822,0.01956 0.144619,0.02741 0.203255,0.02741 0.297072,0 0.398664,-0.148572 0.379169,-0.488597 -0.06255,-1.082678 -0.218869,-3.193282 -0.04694,-5.167184 0.23455,-2.712593 1.110018,-4.057164 2.149738,-5.249277 0.500262,-0.570622 2.845486,-3.048736 7.328654,-3.048736 4.49491,0 6.828326,2.478114 7.328649,3.048736 1.039664,1.188298 1.915278,2.532795 2.149752,5.249277 0.171963,1.973902 0.02346,4.084506 -0.04692,5.167184 -0.02354,0.355711 0.08598,0.488597 0.379099,0.488597 0.05858,0 0.128999,-0.008 0.203259,-0.02741 0.555001,-0.132816 1.516525,-0.629257 2.505449,-0.844239 a 2.3190152,2.3190152 0 0 1 0.492412,-0.05468 c 0.527734,0 1.028004,0.203253 1.231268,0.734737 0.293176,0.773946 -0.105569,1.403279 -1.004493,2.032537 -0.543276,0.379098 -2.509404,1.594734 -2.951015,2.005129 -0.457318,0.422122 -0.39867,0.750419 -0.34398,1.168655 0.04297,0.34787 1.031869,4.983499 7.230939,7.981369 0.351828,0.175915 0.973237,0.547238 -0.117272,1.149158 z"
     id="path6"
     style="stroke-width:0.706487" />
</svg>
