<?xml version="1.0" encoding="UTF-8" standalone="no"?>
<svg
   width="64"
   height="64"
   version="1.1"
   id="svg62"
   sodipodi:docname="spotify-client.svg"
   inkscape:version="1.1.2 (0a00cf5339, 2022-02-04)"
   xmlns:inkscape="http://www.inkscape.org/namespaces/inkscape"
   xmlns:sodipodi="http://sodipodi.sourceforge.net/DTD/sodipodi-0.dtd"
   xmlns="http://www.w3.org/2000/svg"
   xmlns:svg="http://www.w3.org/2000/svg">
  <sodipodi:namedview
     id="namedview64"
     pagecolor="#505050"
     bordercolor="#eeeeee"
     borderopacity="1"
     inkscape:pageshadow="0"
     inkscape:pageopacity="0"
     inkscape:pagecheckerboard="0"
     showgrid="false"
     inkscape:zoom="13.140625"
     inkscape:cx="34.587396"
     inkscape:cy="39.990488"
     inkscape:window-width="1008"
     inkscape:window-height="996"
     inkscape:window-x="960"
     inkscape:window-y="113"
     inkscape:window-maximized="0"
     inkscape:current-layer="svg62" />
  <defs
     id="defs40">
    <linearGradient
       id="b"
       x1="17.187"
       x2="17.187"
       y1="46.737"
       y2="199.98"
       gradientTransform="matrix(.2 0 0 .2 12 12)"
       gradientUnits="userSpaceOnUse">
      <stop
         stop-color="#35C130"
         offset="0"
         id="stop2" />
      <stop
         stop-color="#34BD30"
         offset=".348"
         id="stop4" />
      <stop
         stop-color="#31B231"
         offset=".681"
         id="stop6" />
      <stop
         stop-color="#2C9F32"
         offset="1"
         id="stop8" />
    </linearGradient>
    <linearGradient
       id="f"
       x1="95.97"
       x2="95.97"
       y1="2.292"
       y2="198.44"
       gradientTransform="matrix(0.07308,0,0,0.07308,33.350329,49.291711)"
       gradientUnits="userSpaceOnUse">
      <stop
         stop-color="#47B9FF"
         offset="0"
         id="stop11" />
      <stop
         stop-color="#3D8AFF"
         offset="1"
         id="stop13" />
    </linearGradient>
    <linearGradient
       id="c"
       x1="114.75"
       x2="114.75"
       y1="56.681"
       y2="188.93"
       gradientTransform="translate(10.342 10.3) scale(.21679)"
       gradientUnits="userSpaceOnUse">
      <stop
         stop-color="#ffce00"
         offset="0"
         id="stop16" />
      <stop
         stop-color="#e6bc00"
         offset="1"
         id="stop18" />
    </linearGradient>
    <linearGradient
       id="e"
       x1="103.67"
       x2="103.67"
       y1="-4.662"
       y2="206.5"
       gradientTransform="matrix(0.09224,0,0,0.09224,37.312644,42.830129)"
       gradientUnits="userSpaceOnUse">
      <stop
         stop-color="#fff"
         offset="0"
         id="stop21" />
      <stop
         stop-color="#d7d7d7"
         offset="1"
         id="stop23" />
    </linearGradient>
    <linearGradient
       id="d"
       x1="97.425"
       x2="97.425"
       y1="-9.007"
       y2="209.87"
       gradientTransform="matrix(.2 0 0 .2 12 12)"
       gradientUnits="userSpaceOnUse">
      <stop
         stop-color="#F6503B"
         offset="0"
         id="stop26" />
      <stop
         stop-color="#F24735"
         offset=".217"
         id="stop28" />
      <stop
         stop-color="#E62F25"
         offset=".572"
         id="stop30" />
      <stop
         stop-color="#D4090D"
         offset="1"
         id="stop32" />
    </linearGradient>
    <linearGradient
       id="a"
       x1="7.937"
       x2="7.937"
       y1="15.081"
       y2="1.852"
       gradientTransform="scale(3.7795999)"
       gradientUnits="userSpaceOnUse">
      <stop
         stop-color="#f8fcfc"
         offset="0"
         id="stop35" />
      <stop
         stop-color="#fff"
         offset="1"
         id="stop37" />
    </linearGradient>
  </defs>
  <rect
     style="fill:#1cc658;fill-opacity:1;stroke-width:1.33471"
     id="rect40864"
     width="45.745403"
     height="44.448921"
     x="9.2939253"
     y="9.3395576" />
  <path
     style="fill:#000000;stroke-width:0.273467"
     d="M 14.518873,59.59569 C 12.538912,59.20676 9.930286,57.819134 8.325815,56.301368 6.6061094,54.674591 5.0776404,51.862505 4.6451704,49.529692 4.2843194,47.583201 4.2931054,16.890189 4.6552304,14.384465 5.3406014,9.642044 8.633694,5.7479352 13.146934,4.3429552 c 1.56148,-0.486091 2.761292,-0.518155 19.389192,-0.518155 16.627901,0 17.827712,0.03206 19.389191,0.518155 4.513242,1.40498 7.806334,5.2990888 8.491705,10.0415098 0.362127,2.505724 0.37091,33.198736 0.01006,35.145227 -0.9186,4.955079 -5.102658,9.137059 -10.087665,10.082648 -1.802163,0.34185 -34.071843,0.32684 -35.820542,-0.0167 z m 24.853191,-6.795545 c 3.303196,-1.103732 5.820388,-2.59597 8.263672,-4.898862 4.809492,-4.533135 7.048828,-9.751976 7.048828,-16.427507 0,-3.664675 -0.634684,-6.351537 -2.299673,-9.735372 -2.790708,-5.6717 -8.119682,-10.01062 -14.332161,-11.669434 -2.935701,-0.78387 -8.097507,-0.78387 -11.033208,0 -7.854568,2.097273 -14.110256,8.43344 -16.087665,16.294633 -0.618881,2.460365 -0.733953,6.959676 -0.24591,9.615132 0.775241,4.218117 3.212394,8.576296 6.574686,11.75702 2.450697,2.318358 4.668842,3.710587 7.63954,4.794991 3.069407,1.120434 4.516425,1.330402 8.456266,1.227048 2.967713,-0.07785 3.760162,-0.204006 6.015625,-0.957649 z m 0.02954,-11.6531 c -4.069764,-2.11497 -9.256174,-2.755979 -15.334133,-1.895213 -3.910797,0.553852 -4.487983,0.428355 -4.328371,-0.941094 0.118772,-1.019058 1.009979,-1.332755 5.277534,-1.857649 4.78318,-0.588314 8.63969,-0.275993 12.488903,1.011419 2.489279,0.832566 4.808792,1.978471 5.211951,2.574848 0.537077,0.794484 -0.173773,2.105466 -1.109096,2.045442 -0.25244,-0.01619 -1.245496,-0.43819 -2.206788,-0.937753 z m 2.679305,-5.722747 C 36.60028,32.557512 28.590024,31.523705 22.829095,32.939652 c -2.999322,0.73719 -4.076078,0.373541 -3.911251,-1.320929 0.108117,-1.111477 1.177608,-1.645587 4.425584,-2.210165 6.297884,-1.094731 13.700149,-0.132687 19.265233,2.503829 2.325214,1.101593 3.052465,1.735546 3.052465,2.660873 0,0.57985 -1.09436,1.801177 -1.609141,1.795828 -0.09251,-0.0011 -0.979497,-0.426115 -1.971076,-0.94479 z m 2.759906,-6.852258 c -1.763319,-0.950366 -5.892056,-2.249161 -8.825589,-2.7763 -3.466832,-0.622969 -10.484677,-0.597461 -13.459568,0.04892 -3.817503,0.829467 -4.081962,0.828611 -4.745679,-0.01534 -1.112768,-1.414957 -0.643899,-2.621171 1.256748,-3.233114 3.449617,-1.110657 10.505874,-1.575266 15.354768,-1.011011 5.238303,0.60957 11.848151,2.689603 13.54485,4.262386 1.32676,1.229863 0.587579,3.428449 -1.143108,3.400002 -0.413575,-0.0068 -1.305664,-0.31079 -1.982422,-0.675538 z"
     id="path1798" />
</svg>
